<svg
  width="515"
  height="513"
  viewBox="0 0 515 513"
  fill="none"
  xmlns="http://www.w3.org/2000/svg"
>
  <path
    d="M170.963 286.694C175.132 289.821 177.887 294.475 178.624 299.633C179.361 304.791 178.019 310.031 174.892 314.2C171.766 318.368 167.112 321.124 161.953 321.861C156.795 322.598 151.555 321.256 147.387 318.129L68.7993 259.189C66.3593 257.359 64.3788 254.986 63.0148 252.257C61.6507 249.529 60.9406 246.521 60.9406 243.471C60.9406 240.421 61.6507 237.413 63.0148 234.685C64.3788 231.957 66.3593 229.584 68.7993 227.754L147.387 168.813C151.555 165.687 156.795 164.344 161.953 165.081C167.112 165.818 171.766 168.574 174.892 172.742C178.019 176.911 179.361 182.151 178.624 187.309C177.887 192.467 175.132 197.122 170.963 200.248L113.324 243.471L170.963 286.694ZM315.588 111.346L237.001 386.402C236.331 388.927 235.165 391.292 233.57 393.361C231.975 395.429 229.983 397.159 227.712 398.449C225.441 399.739 222.935 400.562 220.341 400.872C217.748 401.182 215.118 400.972 212.607 400.253C210.096 399.535 207.753 398.323 205.716 396.688C203.678 395.053 201.988 393.029 200.742 390.733C199.496 388.437 198.721 385.916 198.461 383.317C198.202 380.718 198.463 378.093 199.23 375.596L277.817 100.54C279.328 95.622 282.707 91.4926 287.229 89.0391C291.752 86.5856 297.056 86.004 302.002 87.4191C306.949 88.8342 311.143 92.1332 313.683 96.6072C316.224 101.081 316.908 106.373 315.588 111.346ZM446.019 259.189L367.432 318.129C363.263 321.256 358.023 322.598 352.865 321.861C347.707 321.124 343.052 318.368 339.926 314.2C336.8 310.031 335.457 304.791 336.194 299.633C336.931 294.475 339.687 289.821 343.855 286.694L401.494 243.471L343.855 200.248C341.791 198.7 340.052 196.761 338.738 194.541C337.423 192.32 336.559 189.863 336.194 187.309C335.829 184.755 335.971 182.154 336.611 179.655C337.252 177.155 338.378 174.806 339.926 172.742C341.474 170.678 343.413 168.939 345.633 167.625C347.854 166.31 350.311 165.446 352.865 165.081C355.419 164.716 358.02 164.858 360.519 165.498C363.019 166.139 365.367 167.265 367.432 168.813L446.019 227.754C448.459 229.584 450.439 231.957 451.803 234.685C453.168 237.413 453.878 240.421 453.878 243.471C453.878 246.521 453.168 249.529 451.803 252.257C450.439 254.986 448.459 257.359 446.019 259.189Z"
    fill="url(#paint0_linear_0_1)"
    fill-opacity="0.79"
  />
  <path
    d="M170.963 286.694C175.132 289.821 177.887 294.475 178.624 299.633C179.361 304.791 178.019 310.031 174.892 314.2C171.766 318.368 167.112 321.124 161.953 321.861C156.795 322.598 151.555 321.256 147.387 318.129L68.7993 259.189C66.3593 257.359 64.3788 254.986 63.0148 252.257C61.6507 249.529 60.9406 246.521 60.9406 243.471C60.9406 240.421 61.6507 237.413 63.0148 234.685C64.3788 231.957 66.3593 229.584 68.7993 227.754L147.387 168.813C151.555 165.687 156.795 164.344 161.953 165.081C167.112 165.818 171.766 168.574 174.892 172.742C178.019 176.911 179.361 182.151 178.624 187.309C177.887 192.467 175.132 197.122 170.963 200.248L113.324 243.471L170.963 286.694ZM315.588 111.346L237.001 386.402C236.331 388.927 235.165 391.292 233.57 393.361C231.975 395.429 229.983 397.159 227.712 398.449C225.441 399.739 222.935 400.562 220.341 400.872C217.748 401.182 215.118 400.972 212.607 400.253C210.096 399.535 207.753 398.323 205.716 396.688C203.678 395.053 201.988 393.029 200.742 390.733C199.496 388.437 198.721 385.916 198.461 383.317C198.202 380.718 198.463 378.093 199.23 375.596L277.817 100.54C279.328 95.622 282.707 91.4926 287.229 89.0391C291.752 86.5856 297.056 86.004 302.002 87.4191C306.949 88.8342 311.143 92.1332 313.683 96.6072C316.224 101.081 316.908 106.373 315.588 111.346ZM446.019 259.189L367.432 318.129C363.263 321.256 358.023 322.598 352.865 321.861C347.707 321.124 343.052 318.368 339.926 314.2C336.8 310.031 335.457 304.791 336.194 299.633C336.931 294.475 339.687 289.821 343.855 286.694L401.494 243.471L343.855 200.248C341.791 198.7 340.052 196.761 338.738 194.541C337.423 192.32 336.559 189.863 336.194 187.309C335.829 184.755 335.971 182.154 336.611 179.655C337.252 177.155 338.378 174.806 339.926 172.742C341.474 170.678 343.413 168.939 345.633 167.625C347.854 166.31 350.311 165.446 352.865 165.081C355.419 164.716 358.02 164.858 360.519 165.498C363.019 166.139 365.367 167.265 367.432 168.813L446.019 227.754C448.459 229.584 450.439 231.957 451.803 234.685C453.168 237.413 453.878 240.421 453.878 243.471C453.878 246.521 453.168 249.529 451.803 252.257C450.439 254.986 448.459 257.359 446.019 259.189Z"
    stroke="white"
  />
  <path
    d="M473.524 40H41.2937C30.8724 40 20.8779 44.1399 13.5089 51.5089C6.13986 58.8779 2 68.8724 2 79.2937V432.937C2 443.358 6.13986 453.353 13.5089 460.722C20.8779 468.091 30.8724 472.231 41.2937 472.231H473.524C483.946 472.231 493.94 468.091 501.309 460.722C508.678 453.353 512.818 443.358 512.818 432.937V79.2937C512.818 68.8724 508.678 58.8779 501.309 51.5089C493.94 44.1399 483.946 40 473.524 40ZM170.963 299.338C175.131 302.465 177.887 307.119 178.624 312.277C179.361 317.436 178.019 322.676 174.892 326.844C171.766 331.013 167.112 333.768 161.953 334.505C156.795 335.242 151.555 333.9 147.387 330.773L68.7993 271.833C66.3592 270.003 64.3788 267.63 63.0147 264.902C61.6507 262.174 60.9406 259.165 60.9406 256.115C60.9406 253.065 61.6507 250.057 63.0147 247.329C64.3788 244.601 66.3592 242.228 68.7993 240.398L147.387 181.457C151.555 178.331 156.795 176.989 161.953 177.725C167.112 178.462 171.766 181.218 174.892 185.387C178.019 189.555 179.361 194.795 178.624 199.953C177.887 205.112 175.131 209.766 170.963 212.892L113.324 256.115L170.963 299.338ZM315.588 123.99L237.001 399.046C236.331 401.571 235.165 403.937 233.57 406.005C231.975 408.074 229.983 409.803 227.712 411.093C225.441 412.383 222.935 413.207 220.341 413.517C217.748 413.826 215.118 413.616 212.607 412.897C210.096 412.179 207.753 410.967 205.716 409.332C203.678 407.698 201.988 405.673 200.742 403.377C199.496 401.082 198.721 398.56 198.461 395.961C198.202 393.362 198.463 390.737 199.23 388.24L277.817 113.185C279.328 108.266 282.707 104.137 287.229 101.683C291.752 99.2299 297.056 98.6483 302.002 100.063C306.949 101.478 311.143 104.777 313.683 109.251C316.224 113.725 316.908 119.017 315.588 123.99ZM446.019 271.833L367.431 330.773C363.263 333.9 358.023 335.242 352.865 334.505C347.707 333.768 343.052 331.013 339.926 326.844C336.799 322.676 335.457 317.436 336.194 312.277C336.931 307.119 339.687 302.465 343.855 299.338L401.494 256.115L343.855 212.892C341.791 211.344 340.052 209.405 338.738 207.185C337.423 204.965 336.559 202.507 336.194 199.953C335.829 197.399 335.971 194.798 336.611 192.299C337.251 189.799 338.378 187.451 339.926 185.387C341.474 183.323 343.413 181.584 345.633 180.269C347.853 178.955 350.311 178.09 352.865 177.725C355.419 177.361 358.02 177.502 360.519 178.143C363.019 178.783 365.367 179.909 367.431 181.457L446.019 240.398C448.459 242.228 450.439 244.601 451.803 247.329C453.167 250.057 453.878 253.065 453.878 256.115C453.878 259.165 453.167 262.174 451.803 264.902C450.439 267.63 448.459 270.003 446.019 271.833Z"
    fill="url(#paint1_linear_0_1)"
  />
  <defs>
    <linearGradient
      id="paint0_linear_0_1"
      x1="257.409"
      y1="86.6613"
      x2="257.409"
      y2="401.011"
      gradientUnits="userSpaceOnUse"
    >
      <stop stop-color="white" />
      <stop offset="1" stop-color="white" />
    </linearGradient>
    <linearGradient
      id="paint1_linear_0_1"
      x1="2"
      y1="40"
      x2="512.818"
      y2="472.231"
      gradientUnits="userSpaceOnUse"
    >
      <stop stop-color="#00F0FF" />
      <stop offset="0.520833" stop-color="#2989E1" stop-opacity="0.66" />
      <stop offset="1" stop-color="#00F0FF" />
    </linearGradient>
  </defs>
</svg>
