<svg
  width="1em"
  height="1em"
  viewBox="0 0 512 512"
  fill="none"
  xmlns="http://www.w3.org/2000/svg"
>
  <path
    d="M165.963 290.694C170.131 293.821 172.887 298.475 173.624 303.633C174.361 308.791 173.019 314.031 169.892 318.2C166.766 322.368 162.112 325.124 156.953 325.861C151.795 326.598 146.555 325.256 142.387 322.129L63.7993 263.189C61.3592 261.359 59.3788 258.986 58.0147 256.257C56.6507 253.529 55.9406 250.521 55.9406 247.471C55.9406 244.421 56.6507 241.413 58.0147 238.685C59.3788 235.957 61.3592 233.584 63.7993 231.754L142.387 172.813C146.555 169.687 151.795 168.344 156.953 169.081C162.112 169.818 166.766 172.574 169.892 176.742C173.019 180.911 174.361 186.151 173.624 191.309C172.887 196.467 170.131 201.122 165.963 204.248L108.324 247.471L165.963 290.694ZM310.588 115.346L232.001 390.402C231.331 392.927 230.165 395.292 228.57 397.361C226.975 399.429 224.983 401.159 222.712 402.449C220.441 403.739 217.935 404.562 215.341 404.872C212.748 405.182 210.118 404.972 207.607 404.253C205.096 403.535 202.753 402.323 200.716 400.688C198.678 399.053 196.988 397.029 195.742 394.733C194.496 392.437 193.721 389.916 193.461 387.317C193.202 384.718 193.463 382.093 194.23 379.596L272.817 104.54C274.328 99.6221 277.707 95.4926 282.229 93.0391C286.752 90.5856 292.056 90.004 297.002 91.4191C301.949 92.8342 306.143 96.1332 308.683 100.607C311.224 105.081 311.908 110.373 310.588 115.346ZM441.019 263.189L362.431 322.129C358.263 325.256 353.023 326.598 347.865 325.861C342.707 325.124 338.052 322.368 334.926 318.2C331.799 314.031 330.457 308.791 331.194 303.633C331.931 298.475 334.687 293.821 338.855 290.694L396.494 247.471L338.855 204.248C336.791 202.7 335.052 200.761 333.738 198.541C332.423 196.32 331.559 193.863 331.194 191.309C330.829 188.755 330.971 186.154 331.611 183.655C332.251 181.155 333.378 178.806 334.926 176.742C336.474 174.678 338.413 172.939 340.633 171.625C342.853 170.31 345.311 169.446 347.865 169.081C350.419 168.716 353.02 168.858 355.519 169.498C358.019 170.139 360.367 171.265 362.431 172.813L441.019 231.754C443.459 233.584 445.439 235.957 446.803 238.685C448.167 241.413 448.878 244.421 448.878 247.471C448.878 250.521 448.167 253.529 446.803 256.257C445.439 258.986 443.459 261.359 441.019 263.189Z"
    fill="url(#paint0_linear_2_12)"
    fill-opacity="0.79"
  />
  <path
    d="M165.963 290.694C170.131 293.821 172.887 298.475 173.624 303.633C174.361 308.791 173.019 314.031 169.892 318.2C166.766 322.368 162.112 325.124 156.953 325.861C151.795 326.598 146.555 325.256 142.387 322.129L63.7993 263.189C61.3592 261.359 59.3788 258.986 58.0147 256.257C56.6507 253.529 55.9406 250.521 55.9406 247.471C55.9406 244.421 56.6507 241.413 58.0147 238.685C59.3788 235.957 61.3592 233.584 63.7993 231.754L142.387 172.813C146.555 169.687 151.795 168.344 156.953 169.081C162.112 169.818 166.766 172.574 169.892 176.742C173.019 180.911 174.361 186.151 173.624 191.309C172.887 196.467 170.131 201.122 165.963 204.248L108.324 247.471L165.963 290.694ZM310.588 115.346L232.001 390.402C231.331 392.927 230.165 395.292 228.57 397.361C226.975 399.429 224.983 401.159 222.712 402.449C220.441 403.739 217.935 404.562 215.341 404.872C212.748 405.182 210.118 404.972 207.607 404.253C205.096 403.535 202.753 402.323 200.716 400.688C198.678 399.053 196.988 397.029 195.742 394.733C194.496 392.437 193.721 389.916 193.461 387.317C193.202 384.718 193.463 382.093 194.23 379.596L272.817 104.54C274.328 99.6221 277.707 95.4926 282.229 93.0391C286.752 90.5856 292.056 90.004 297.002 91.4191C301.949 92.8342 306.143 96.1332 308.683 100.607C311.224 105.081 311.908 110.373 310.588 115.346ZM441.019 263.189L362.431 322.129C358.263 325.256 353.023 326.598 347.865 325.861C342.707 325.124 338.052 322.368 334.926 318.2C331.799 314.031 330.457 308.791 331.194 303.633C331.931 298.475 334.687 293.821 338.855 290.694L396.494 247.471L338.855 204.248C336.791 202.7 335.052 200.761 333.738 198.541C332.423 196.32 331.559 193.863 331.194 191.309C330.829 188.755 330.971 186.154 331.611 183.655C332.251 181.155 333.378 178.806 334.926 176.742C336.474 174.678 338.413 172.939 340.633 171.625C342.853 170.31 345.311 169.446 347.865 169.081C350.419 168.716 353.02 168.858 355.519 169.498C358.019 170.139 360.367 171.265 362.431 172.813L441.019 231.754C443.459 233.584 445.439 235.957 446.803 238.685C448.167 241.413 448.878 244.421 448.878 247.471C448.878 250.521 448.167 253.529 446.803 256.257C445.439 258.986 443.459 261.359 441.019 263.189Z"
    stroke="white"
  />
  <path
    d="M471.524 46H39.2937C28.8724 46 18.8779 50.1399 11.5089 57.5089C4.13986 64.8779 0 74.8724 0 85.2937V438.937C0 449.358 4.13986 459.353 11.5089 466.722C18.8779 474.091 28.8724 478.231 39.2937 478.231H471.524C481.946 478.231 491.94 474.091 499.309 466.722C506.678 459.353 510.818 449.358 510.818 438.937V85.2937C510.818 74.8724 506.678 64.8779 499.309 57.5089C491.94 50.1399 481.946 46 471.524 46ZM168.963 305.338C173.131 308.465 175.887 313.119 176.624 318.277C177.361 323.436 176.019 328.676 172.892 332.844C169.766 337.013 165.112 339.768 159.953 340.505C154.795 341.242 149.555 339.9 145.387 336.773L66.7993 277.833C64.3592 276.003 62.3788 273.63 61.0147 270.902C59.6507 268.174 58.9406 265.165 58.9406 262.115C58.9406 259.065 59.6507 256.057 61.0147 253.329C62.3788 250.601 64.3592 248.228 66.7993 246.398L145.387 187.457C149.555 184.331 154.795 182.989 159.953 183.725C165.112 184.462 169.766 187.218 172.892 191.387C176.019 195.555 177.361 200.795 176.624 205.953C175.887 211.112 173.131 215.766 168.963 218.892L111.324 262.115L168.963 305.338ZM313.588 129.99L235.001 405.046C234.331 407.571 233.165 409.937 231.57 412.005C229.975 414.074 227.983 415.803 225.712 417.093C223.441 418.383 220.935 419.207 218.341 419.517C215.748 419.826 213.118 419.616 210.607 418.897C208.096 418.179 205.753 416.967 203.716 415.332C201.678 413.698 199.988 411.673 198.742 409.377C197.496 407.082 196.721 404.56 196.461 401.961C196.202 399.362 196.463 396.737 197.23 394.24L275.817 119.185C277.328 114.266 280.707 110.137 285.229 107.683C289.752 105.23 295.056 104.648 300.002 106.063C304.949 107.478 309.143 110.777 311.683 115.251C314.224 119.725 314.908 125.017 313.588 129.99ZM444.019 277.833L365.431 336.773C361.263 339.9 356.023 341.242 350.865 340.505C345.707 339.768 341.052 337.013 337.926 332.844C334.799 328.676 333.457 323.436 334.194 318.277C334.931 313.119 337.687 308.465 341.855 305.338L399.494 262.115L341.855 218.892C339.791 217.344 338.052 215.405 336.738 213.185C335.423 210.965 334.559 208.507 334.194 205.953C333.829 203.399 333.971 200.798 334.611 198.299C335.251 195.799 336.378 193.451 337.926 191.387C339.474 189.323 341.413 187.584 343.633 186.269C345.853 184.955 348.311 184.09 350.865 183.725C353.419 183.361 356.02 183.502 358.519 184.143C361.019 184.783 363.367 185.909 365.431 187.457L444.019 246.398C446.459 248.228 448.439 250.601 449.803 253.329C451.167 256.057 451.878 259.065 451.878 262.115C451.878 265.165 451.167 268.174 449.803 270.902C448.439 273.63 446.459 276.003 444.019 277.833Z"
    fill="url(#paint1_linear_2_12)"
  />
  <defs>
    <linearGradient
      id="paint0_linear_2_12"
      x1="255.409"
      y1="92.6613"
      x2="255.409"
      y2="407.011"
      gradientUnits="userSpaceOnUse"
    >
      <stop stop-color="white" />
      <stop offset="1" stop-color="white" />
    </linearGradient>
    <linearGradient
      id="paint1_linear_2_12"
      x1="0"
      y1="46"
      x2="510.818"
      y2="478.231"
      gradientUnits="userSpaceOnUse"
    >
      <stop stop-color="#00F0FF" />
      <stop offset="0.520833" stop-color="#2989E1" stop-opacity="0.66" />
      <stop offset="1" stop-color="#00F0FF" />
    </linearGradient>
  </defs>
</svg>
